<svg width="25" height="24" viewBox="0 0 25 24" fill="none" xmlns="http://www.w3.org/2000/svg">
<path d="M5.73967 3.66187C5.81032 3.59123 5.84564 3.5559 5.87676 3.52731C6.64192 2.82423 7.81803 2.82423 8.58318 3.52731C8.6143 3.5559 8.64963 3.59123 8.72027 3.66187L10.1785 5.12007C10.9805 5.92212 11.2099 7.13336 10.7567 8.17314C10.3034 9.21293 10.5328 10.4242 11.3349 11.2262L13.7317 13.623C14.5337 14.4251 15.745 14.6545 16.7848 14.2012C17.8245 13.748 19.0358 13.9774 19.8378 14.7794L21.296 16.2376C21.3667 16.3083 21.402 16.3436 21.4306 16.3747C22.1337 17.1399 22.1337 18.316 21.4306 19.0811C21.402 19.1123 21.3667 19.1476 21.296 19.2182L20.4097 20.1046C19.6879 20.8264 18.6474 21.1294 17.6509 20.9079C10.8613 19.3991 5.55877 14.0966 4.04997 7.307C3.82854 6.31054 4.13154 5.27001 4.85333 4.54821L5.73967 3.66187Z" stroke="#C8ACD6" stroke-width="1.5"/>
</svg>
