<svg width="24" height="24" viewBox="0 0 24 24" fill="none" xmlns="http://www.w3.org/2000/svg">
<path d="M12.0229 24H11.9701C5.36985 24 0 18.6286 0 12.0264V11.9736C0 5.37143 5.36985 0 11.9701 0H12.0229C18.6231 0 23.9929 5.37143 23.9929 11.9736V12.0264C23.9929 18.6286 18.6231 24 12.0229 24ZM11.9701 0.812375C5.81733 0.812375 0.812136 5.81905 0.812136 11.9736V12.0264C0.812136 18.181 5.81733 23.1876 11.9701 23.1876H12.0229C18.1756 23.1876 23.1808 18.181 23.1808 12.0264V11.9736C23.1808 5.81905 18.1756 0.812375 12.0229 0.812375H11.9701Z" fill="url(#paint0_linear_1_81)"/>
<path d="M15.5833 5.12366H8.41048C6.42886 5.12366 4.81677 6.73622 4.81677 8.71842V15.2824C4.81677 17.2646 6.42886 18.8772 8.41048 18.8772H15.5833C17.5649 18.8772 19.177 17.2646 19.177 15.2824V8.71842C19.177 6.73622 17.5649 5.12366 15.5833 5.12366ZM6.08452 8.71842C6.08452 7.43568 7.12811 6.39177 8.41048 6.39177H15.5833C16.8656 6.39177 17.9092 7.43568 17.9092 8.71842V15.2824C17.9092 16.5652 16.8656 17.6091 15.5833 17.6091H8.41048C7.12811 17.6091 6.08452 16.5652 6.08452 15.2824V8.71842Z" fill="url(#paint1_linear_1_81)"/>
<path d="M11.9969 15.3433C13.8396 15.3433 15.3396 13.8437 15.3396 11.9996C15.3396 10.1555 13.8404 8.65585 11.9969 8.65585C10.1533 8.65585 8.65411 10.1555 8.65411 11.9996C8.65411 13.8437 10.1533 15.3433 11.9969 15.3433ZM11.9969 9.92478C13.1412 9.92478 14.0719 10.8558 14.0719 12.0004C14.0719 13.145 13.1412 14.076 11.9969 14.076C10.8526 14.076 9.92186 13.145 9.92186 12.0004C9.92186 10.8558 10.8526 9.92478 11.9969 9.92478Z" fill="url(#paint2_linear_1_81)"/>
<path d="M15.6491 9.1961C16.1453 9.1961 16.5497 8.79235 16.5497 8.29518C16.5497 7.798 16.1461 7.39426 15.6491 7.39426C15.152 7.39426 14.7484 7.798 14.7484 8.29518C14.7484 8.79235 15.152 9.1961 15.6491 9.1961Z" fill="url(#paint3_linear_1_81)"/>
<defs>
<linearGradient id="paint0_linear_1_81" x1="3.51005" y1="20.4889" x2="20.4879" y2="3.51608" gradientUnits="userSpaceOnUse">
<stop stop-color="#FAAD4F"/>
<stop offset="0.35" stop-color="#DD2A7B"/>
<stop offset="0.62" stop-color="#9537B0"/>
<stop offset="1" stop-color="#515BD4"/>
</linearGradient>
<linearGradient id="paint1_linear_1_81" x1="6.02279" y1="17.9754" x2="17.9737" y2="6.02892" gradientUnits="userSpaceOnUse">
<stop stop-color="#FAAD4F"/>
<stop offset="0.35" stop-color="#DD2A7B"/>
<stop offset="0.62" stop-color="#9537B0"/>
<stop offset="1" stop-color="#515BD4"/>
</linearGradient>
<linearGradient id="paint2_linear_1_81" x1="9.63436" y1="14.3636" x2="14.36" y2="9.6386" gradientUnits="userSpaceOnUse">
<stop stop-color="#FAAD4F"/>
<stop offset="0.35" stop-color="#DD2A7B"/>
<stop offset="0.62" stop-color="#9537B0"/>
<stop offset="1" stop-color="#515BD4"/>
</linearGradient>
<linearGradient id="paint3_linear_1_81" x1="15.0124" y1="8.93208" x2="16.2862" y2="7.65865" gradientUnits="userSpaceOnUse">
<stop stop-color="#FAAD4F"/>
<stop offset="0.35" stop-color="#DD2A7B"/>
<stop offset="0.62" stop-color="#9537B0"/>
<stop offset="1" stop-color="#515BD4"/>
</linearGradient>
</defs>
</svg>
