<svg width="25" height="24" viewBox="0 0 25 24" fill="none" xmlns="http://www.w3.org/2000/svg">
<path d="M13.0087 24H12.9559C6.35569 24 0.98584 18.6286 0.98584 12.0264V11.9736C0.98584 5.37143 6.35569 0 12.9559 0H13.0087C19.6089 0 24.9788 5.37143 24.9788 11.9736V12.0264C24.9788 18.6286 19.6089 24 13.0087 24ZM12.9559 0.812375C6.80318 0.812375 1.79798 5.81904 1.79798 11.9736V12.0264C1.79798 18.181 6.80318 23.1876 12.9559 23.1876H13.0087C19.1614 23.1876 24.1667 18.181 24.1667 12.0264V11.9736C24.1667 5.81904 19.1614 0.812375 13.0087 0.812375H12.9559Z" fill="#007EBB"/>
<path d="M6.92011 8.11318C6.61475 7.82966 6.46289 7.47872 6.46289 7.06116C6.46289 6.6436 6.61556 6.27721 6.92011 5.99288C7.22548 5.70936 7.61855 5.5672 8.10015 5.5672C8.58175 5.5672 8.9594 5.70936 9.26395 5.99288C9.56931 6.2764 9.72117 6.63304 9.72117 7.06116C9.72117 7.48928 9.5685 7.82966 9.26395 8.11318C8.95858 8.3967 8.57119 8.53886 8.10015 8.53886C7.62911 8.53886 7.22548 8.3967 6.92011 8.11318ZM9.46454 9.73956V18.432H6.71871V9.73956H9.46454Z" fill="#007EBB"/>
<path d="M18.6051 10.5982C19.2037 11.2481 19.5026 12.1401 19.5026 13.2758V18.2784H16.8948V13.6284C16.8948 13.0557 16.7462 12.6105 16.4498 12.2936C16.1533 11.9768 15.7538 11.8176 15.2535 11.8176C14.7532 11.8176 14.3536 11.976 14.0572 12.2936C13.7608 12.6105 13.6121 13.0557 13.6121 13.6284V18.2784H10.989V9.71518H13.6121V10.8509C13.8777 10.4723 14.2359 10.1734 14.6858 9.9532C15.1357 9.73305 15.6417 9.62338 16.2045 9.62338C17.2067 9.62338 18.0074 9.94833 18.6051 10.5982Z" fill="#007EBB"/>
</svg>
