<svg width="25" height="24" viewBox="0 0 25 24" fill="none" xmlns="http://www.w3.org/2000/svg">
<path d="M4.97882 6L11.0865 10.6123L11.0885 10.614C11.7667 11.1113 12.106 11.3601 12.4776 11.4562C12.806 11.5412 13.1513 11.5412 13.4798 11.4562C13.8517 11.36 14.192 11.1105 14.8714 10.6123C14.8714 10.6123 18.7889 7.60594 20.9788 6M3.97882 15.8002V8.2002C3.97882 7.08009 3.97882 6.51962 4.19681 6.0918C4.38855 5.71547 4.69429 5.40973 5.07062 5.21799C5.49844 5 6.05891 5 7.17902 5H18.779C19.8991 5 20.4584 5 20.8862 5.21799C21.2625 5.40973 21.5693 5.71547 21.761 6.0918C21.9788 6.5192 21.9788 7.07899 21.9788 8.19691V15.8036C21.9788 16.9215 21.9788 17.4805 21.761 17.9079C21.5693 18.2842 21.2625 18.5905 20.8862 18.7822C20.4588 19 19.8998 19 18.7819 19H7.17573C6.05781 19 5.49802 19 5.07062 18.7822C4.69429 18.5905 4.38855 18.2842 4.19681 17.9079C3.97882 17.4801 3.97882 16.9203 3.97882 15.8002Z" stroke="#C8ACD6" stroke-width="2" stroke-linecap="round" stroke-linejoin="round"/>
</svg>
