<svg width="25" height="24" viewBox="0 0 25 24" fill="none" xmlns="http://www.w3.org/2000/svg">
<path d="M5.97882 9.92285C5.97882 14.7747 10.2233 18.7869 12.102 20.3252C12.3709 20.5454 12.5069 20.6568 12.7075 20.7132C12.8637 20.7572 13.0936 20.7572 13.2498 20.7132C13.4508 20.6567 13.5859 20.5463 13.8558 20.3254C15.7345 18.7871 19.9787 14.7751 19.9787 9.9233C19.9787 8.08718 19.2413 6.32605 17.9285 5.02772C16.6158 3.72939 14.8354 3 12.9789 3C11.1224 3 9.34183 3.7295 8.02907 5.02783C6.71632 6.32616 5.97882 8.08674 5.97882 9.92285Z" stroke="#C8ACD6" stroke-width="2" stroke-linecap="round" stroke-linejoin="round"/>
<path d="M10.9788 9C10.9788 10.1046 11.8743 11 12.9788 11C14.0834 11 14.9788 10.1046 14.9788 9C14.9788 7.89543 14.0834 7 12.9788 7C11.8743 7 10.9788 7.89543 10.9788 9Z" stroke="#C8ACD6" stroke-width="2" stroke-linecap="round" stroke-linejoin="round"/>
</svg>
