<svg width="24" height="24" viewBox="0 0 24 24" fill="none" xmlns="http://www.w3.org/2000/svg">
<path d="M12.0158 24H11.963C5.36277 24 -0.00708008 18.6286 -0.00708008 12.0264V11.9736C-0.00708008 5.37143 5.36277 0 11.963 0H12.0158C18.616 0 23.9859 5.37143 23.9859 11.9736V12.0264C23.9859 18.6286 18.616 24 12.0158 24ZM11.963 0.812375C5.81025 0.812375 0.805056 5.81905 0.805056 11.9736V12.0264C0.805056 18.181 5.81025 23.1876 11.963 23.1876H12.0158C18.1685 23.1876 23.1737 18.181 23.1737 12.0264V11.9736C23.1737 5.81905 18.1685 0.812375 12.0158 0.812375H11.963Z" fill="#00E510"/>
<path d="M14.2491 15.3913C11.2823 15.3913 8.86867 12.9761 8.86786 10.0085C8.86867 9.25621 9.48102 8.6445 10.2314 8.6445C10.3086 8.6445 10.3849 8.651 10.458 8.664C10.6188 8.69081 10.7715 8.74524 10.912 8.82729C10.9323 8.83947 10.9461 8.85896 10.9494 8.88171L11.2628 10.8582C11.2669 10.881 11.2596 10.9045 11.2442 10.9216C11.0712 11.1133 10.8503 11.2514 10.6042 11.3205L10.4856 11.3538L10.5303 11.4683C10.9347 12.4984 11.7583 13.3213 12.7889 13.7275L12.9034 13.773L12.9367 13.6544C13.0057 13.4083 13.1438 13.1873 13.3354 13.0143C13.3492 13.0013 13.3679 12.9948 13.3866 12.9948C13.3906 12.9948 13.3947 12.9948 13.3996 12.9956L15.3755 13.3092C15.3991 13.3132 15.4186 13.3262 15.4307 13.3465C15.512 13.4871 15.5664 13.6406 15.594 13.8015C15.607 13.8729 15.6127 13.9485 15.6127 14.0273C15.6127 14.7787 15.0011 15.3905 14.2491 15.3913Z" fill="#00E510"/>
<path d="M19.5102 11.3489C19.3502 9.54053 18.5218 7.86298 17.1777 6.62573C15.8255 5.38117 14.0713 4.69553 12.2367 4.69553C8.2101 4.69553 4.93395 7.97265 4.93395 12.0004C4.93395 13.3522 5.30671 14.6691 6.01246 15.8161L4.43854 19.3012L9.47785 18.7642C10.3541 19.1233 11.2816 19.3053 12.2359 19.3053C12.4868 19.3053 12.7443 19.2923 13.0025 19.2655C13.2299 19.2411 13.4598 19.2054 13.6855 19.1599C17.0575 18.4783 19.5191 15.4847 19.5386 12.0394V12.0004C19.5386 11.7811 19.5288 11.5617 19.5094 11.3497L19.5102 11.3489ZM9.67195 17.2345L6.88389 17.5319L7.71633 15.687L7.54984 15.4636C7.53765 15.4473 7.52547 15.4311 7.51167 15.4124C6.78887 14.414 6.40716 13.2344 6.40716 12.0012C6.40716 8.78584 9.02224 6.16999 12.2367 6.16999C15.2481 6.16999 17.8006 8.52019 18.0467 11.5203C18.0597 11.6811 18.067 11.8428 18.067 12.002C18.067 12.0475 18.0662 12.0922 18.0654 12.1401C18.0037 14.8299 16.1252 17.1143 13.4971 17.696C13.2965 17.7407 13.091 17.7748 12.8864 17.7967C12.6736 17.8211 12.4551 17.8333 12.2383 17.8333C11.466 17.8333 10.7155 17.6838 10.0065 17.3881C9.92777 17.3564 9.85061 17.3223 9.77833 17.2873L9.67276 17.2362L9.67195 17.2345Z" fill="#00E510"/>
</svg>
